<?xml version="1.0" encoding="utf-8"?>
<!-- Generator: Adobe Illustrator 15.1.0, SVG Export Plug-In . SVG Version: 6.00 Build 0)  -->
<!DOCTYPE svg PUBLIC "-//W3C//DTD SVG 1.1//EN" "http://www.w3.org/Graphics/SVG/1.1/DTD/svg11.dtd">
<svg version="1.1" xmlns="http://www.w3.org/2000/svg" xmlns:xlink="http://www.w3.org/1999/xlink" x="0px" y="0px"
	 width="117.715px" height="54px" viewBox="0 0 117.715 54" enable-background="new 0 0 117.715 54" xml:space="preserve">
<g id="Layer_1">
	<g>
		<path fill="#E6E7E8" stroke="#D1D3D4" d="M117.215,41.5c0,6.627-5.373,12-12,12H12.5c-6.627,0-12-5.373-12-12v-29
			c0-6.627,5.373-12,12-12h92.715c6.627,0,12,5.373,12,12V41.5z"/>
		<path fill="#F19D1F" d="M72.846,17.556h3.477c2.317,0,3.887,0.089,4.707,0.269c0.82,0.179,1.489,0.636,2.007,1.371
			c0.517,0.735,0.775,1.908,0.775,3.517c0,1.47-0.183,2.459-0.548,2.963c-0.366,0.506-1.085,0.81-2.158,0.91
			c0.972,0.242,1.625,0.564,1.96,0.968c0.334,0.405,0.542,0.776,0.624,1.114c0.081,0.338,0.122,1.27,0.122,2.794v4.981H79.25v-6.276
			c0-1.011-0.079-1.637-0.239-1.878c-0.159-0.241-0.577-0.361-1.254-0.361v8.516h-4.911V17.556z M77.757,20.788v4.2
			c0.552,0,0.938-0.076,1.161-0.228c0.222-0.151,0.332-0.644,0.332-1.475v-1.039c0-0.599-0.106-0.992-0.32-1.178
			C78.716,20.881,78.325,20.788,77.757,20.788z"/>
		<path fill="#F19D1F" d="M85.713,17.556h8.319v3.78h-3.407v3.582h3.033v3.593h-3.033v7.933h-4.912V17.556z"/>
		<g>
			<path d="M25.646,23.272h-4.562v-1.4c0-0.653-0.058-1.07-0.175-1.249c-0.116-0.178-0.311-0.268-0.583-0.268
				c-0.296,0-0.52,0.12-0.671,0.361c-0.152,0.241-0.228,0.607-0.228,1.098c0,0.63,0.085,1.105,0.255,1.424
				c0.163,0.319,0.625,0.704,1.388,1.155c2.187,1.298,3.563,2.362,4.131,3.195c0.568,0.832,0.852,2.174,0.852,4.024
				c0,1.346-0.158,2.338-0.473,2.976c-0.315,0.638-0.923,1.173-1.826,1.604c-0.902,0.433-1.952,0.648-3.149,0.648
				c-1.315,0-2.436-0.249-3.366-0.747s-1.538-1.131-1.826-1.901c-0.288-0.771-0.432-1.862-0.432-3.278v-1.236h4.562v2.298
				c0,0.708,0.063,1.163,0.193,1.364c0.128,0.203,0.355,0.305,0.682,0.305c0.327,0,0.57-0.129,0.729-0.385
				c0.16-0.258,0.24-0.639,0.24-1.145c0-1.111-0.151-1.84-0.455-2.182c-0.312-0.342-1.078-0.914-2.298-1.714
				c-1.221-0.809-2.03-1.396-2.427-1.761c-0.396-0.366-0.726-0.872-0.986-1.517c-0.261-0.646-0.391-1.47-0.391-2.474
				c0-1.446,0.185-2.503,0.554-3.173c0.37-0.669,0.967-1.192,1.792-1.569c0.824-0.377,1.82-0.566,2.986-0.566
				c1.276,0,2.363,0.206,3.261,0.618c0.898,0.413,1.494,0.932,1.786,1.558c0.291,0.626,0.437,1.689,0.437,3.191V23.272z"/>
			<path d="M30.868,24.756l-0.062,1.033c0.317-0.417,0.667-0.729,1.048-0.935c0.381-0.206,0.798-0.309,1.25-0.309
				c0.551,0,1.029,0.148,1.431,0.445c0.402,0.296,0.653,0.639,0.753,1.026s0.149,1.046,0.149,1.973v4.923
				c0,1.062-0.062,1.818-0.189,2.268c-0.126,0.449-0.385,0.808-0.774,1.075c-0.391,0.267-0.862,0.4-1.414,0.4
				c-0.441,0-0.849-0.103-1.225-0.31c-0.375-0.205-0.719-0.511-1.03-0.917v2.68h-3.558V24.756H30.868z M31.881,28.156
				c0-0.722-0.026-1.16-0.079-1.312c-0.053-0.152-0.2-0.229-0.44-0.229c-0.235,0-0.386,0.088-0.454,0.265
				c-0.068,0.176-0.102,0.602-0.102,1.277V33c0,0.705,0.035,1.145,0.106,1.321s0.223,0.265,0.458,0.265
				c0.229,0,0.371-0.08,0.427-0.242c0.056-0.162,0.084-0.554,0.084-1.176V28.156z"/>
			<path d="M44.661,28.861v2.861c0,1.052-0.053,1.822-0.159,2.312c-0.105,0.49-0.332,0.948-0.678,1.373
				c-0.347,0.427-0.792,0.74-1.334,0.943c-0.544,0.202-1.167,0.304-1.872,0.304c-0.786,0-1.453-0.087-1.999-0.26
				s-0.971-0.435-1.272-0.784c-0.303-0.35-0.519-0.771-0.648-1.268c-0.13-0.496-0.193-1.24-0.193-2.233v-2.995
				c0-1.085,0.117-1.933,0.352-2.544c0.235-0.61,0.658-1.101,1.269-1.471c0.61-0.37,1.392-0.555,2.343-0.555
				c0.798,0,1.484,0.119,2.057,0.357c0.572,0.237,1.015,0.547,1.325,0.929c0.312,0.382,0.524,0.775,0.639,1.181
				C44.603,27.416,44.661,28.033,44.661,28.861z M41.102,27.98c0-0.599-0.032-0.976-0.097-1.131
				c-0.064-0.156-0.202-0.234-0.414-0.234c-0.211,0-0.353,0.078-0.423,0.234c-0.07,0.155-0.105,0.533-0.105,1.131v5.276
				c0,0.552,0.035,0.911,0.105,1.078c0.07,0.168,0.209,0.252,0.414,0.252c0.211,0,0.351-0.076,0.419-0.229
				c0.067-0.153,0.101-0.481,0.101-0.987V27.98z"/>
			<path d="M49.583,23.198v1.841h0.96v1.85h-0.96v6.252c0,0.77,0.04,1.198,0.119,1.287c0.079,0.088,0.41,0.132,0.99,0.132v1.884
				h-1.436c-0.81,0-1.389-0.033-1.734-0.102c-0.347-0.066-0.651-0.223-0.916-0.466s-0.43-0.522-0.493-0.837
				c-0.064-0.314-0.098-1.053-0.098-2.215v-5.936H45.25v-1.85h0.766v-1.841H49.583z"/>
			<path d="M55.08,23.198v1.841h0.96v1.85h-0.96v6.252c0,0.77,0.039,1.198,0.118,1.287c0.079,0.088,0.41,0.132,0.991,0.132v1.884
				h-1.436c-0.811,0-1.389-0.033-1.735-0.102c-0.347-0.066-0.651-0.223-0.916-0.466c-0.264-0.243-0.429-0.522-0.493-0.837
				s-0.097-1.053-0.097-2.215v-5.936h-0.766v-1.85h0.766v-1.841H55.08z"/>
			<path d="M64.881,30.807h-4.606v2.528c0,0.528,0.038,0.868,0.115,1.021c0.076,0.153,0.223,0.229,0.44,0.229
				c0.27,0,0.45-0.102,0.541-0.305c0.092-0.202,0.137-0.594,0.137-1.176v-1.541h3.373v0.863c0,0.723-0.045,1.277-0.136,1.664
				c-0.091,0.388-0.305,0.802-0.639,1.242c-0.335,0.439-0.759,0.771-1.272,0.99c-0.515,0.221-1.158,0.331-1.934,0.331
				c-0.752,0-1.415-0.108-1.99-0.325c-0.576-0.218-1.022-0.517-1.344-0.895c-0.319-0.379-0.541-0.795-0.664-1.251
				c-0.124-0.454-0.186-1.117-0.186-1.985V28.79c0-1.021,0.139-1.827,0.414-2.418c0.275-0.589,0.728-1.042,1.356-1.355
				c0.628-0.314,1.351-0.472,2.166-0.472c0.998,0,1.822,0.19,2.471,0.569c0.648,0.378,1.104,0.881,1.365,1.505
				c0.262,0.626,0.392,1.505,0.392,2.639V30.807z M61.315,28.904v-0.854c0-0.605-0.032-0.995-0.097-1.171s-0.197-0.265-0.396-0.265
				c-0.247,0-0.399,0.075-0.458,0.225c-0.06,0.149-0.089,0.554-0.089,1.211v0.854H61.315z"/>
			<path d="M69.602,24.756l-0.141,1.537c0.517-1.1,1.266-1.683,2.246-1.748v4.113c-0.652,0-1.131,0.088-1.436,0.264
				c-0.306,0.178-0.493,0.422-0.563,0.736c-0.071,0.313-0.106,1.037-0.106,2.171v4.614h-3.558V24.756H69.602z"/>
			<path d="M100.358,25.374C99.707,16.676,92.682,9.73,83.95,9.205V6.439H81.75v2.771c-6.712,0.427-12.566,4.618-15.115,10.92
				l2.04,0.825c2.21-5.468,7.266-9.118,13.075-9.542v2.164h2.199v-2.166c7.52,0.518,13.561,6.479,14.203,13.963h-2.406v2.2h2.439
				c-0.438,7.689-6.571,13.876-14.236,14.404v-2.166H81.75v2.16c-3.408-0.252-6.63-1.627-9.174-3.943l-1.48,1.627
				c2.949,2.686,6.697,4.264,10.654,4.521v2.772h2.199v-2.767c8.88-0.532,15.999-7.705,16.441-16.608h2.494v-2.2H100.358z"/>
		</g>
	</g>
</g>
<g id="Layer_2">
</g>
</svg>
