<?xml version="1.0" encoding="utf-8"?>
<!-- Generator: Adobe Illustrator 15.1.0, SVG Export Plug-In . SVG Version: 6.00 Build 0)  -->
<!DOCTYPE svg PUBLIC "-//W3C//DTD SVG 1.1//EN" "http://www.w3.org/Graphics/SVG/1.1/DTD/svg11.dtd">
<svg version="1.1" xmlns="http://www.w3.org/2000/svg" xmlns:xlink="http://www.w3.org/1999/xlink" x="0px" y="0px"
	 width="117.715px" height="54px" viewBox="0 0 117.715 54" enable-background="new 0 0 117.715 54" xml:space="preserve">
<g id="Layer_1">
</g>
<g id="Layer_2">
	<g>
		<path fill="#E6E7E8" stroke="#BCBEC0" d="M117.215,41.5c0,6.628-5.373,12-12,12H12.5c-6.628,0-12-5.372-12-12v-29
			c0-6.627,5.372-12,12-12h92.715c6.627,0,12,5.373,12,12V41.5z"/>
		<path fill="#F19D21" stroke="#E48325" stroke-width="0.25" d="M72.846,17.556h3.477c2.317,0,3.887,0.09,4.707,0.269
			s1.489,0.636,2.007,1.371c0.517,0.735,0.775,1.907,0.775,3.517c0,1.471-0.183,2.459-0.548,2.964
			c-0.366,0.506-1.085,0.81-2.158,0.91c0.972,0.241,1.625,0.564,1.96,0.968c0.334,0.405,0.542,0.776,0.624,1.115
			c0.081,0.338,0.122,1.27,0.122,2.794v4.981H79.25v-6.277c0-1.01-0.079-1.637-0.239-1.878c-0.159-0.241-0.577-0.361-1.254-0.361
			v8.517h-4.911V17.556z M77.757,20.788v4.199c0.552,0,0.938-0.075,1.161-0.228c0.222-0.151,0.332-0.644,0.332-1.476v-1.038
			c0-0.6-0.106-0.992-0.32-1.179C78.716,20.882,78.325,20.788,77.757,20.788z"/>
		<path fill="#F19D21" stroke="#E48325" stroke-width="0.25" d="M85.713,17.556h8.319v3.78h-3.407v3.582h3.033v3.593h-3.033v7.934
			h-4.912V17.556z"/>
		<g>
			<g>
				<path d="M20.606,36.967c-1.327,0-2.479-0.257-3.424-0.763c-0.954-0.51-1.587-1.172-1.884-1.967
					c-0.292-0.78-0.439-1.898-0.439-3.323v-1.361h4.812v2.424c0,0.848,0.094,1.174,0.173,1.297c0.105,0.166,0.294,0.246,0.576,0.246
					c0.283,0,0.487-0.106,0.624-0.326c0.146-0.235,0.22-0.598,0.22-1.077c0-1.077-0.143-1.783-0.423-2.099
					c-0.302-0.332-1.067-0.902-2.273-1.693c-1.222-0.81-2.044-1.407-2.443-1.774c-0.409-0.377-0.751-0.903-1.018-1.562
					c-0.266-0.659-0.4-1.507-0.4-2.521c0-1.459,0.192-2.547,0.57-3.233c0.38-0.689,1.002-1.236,1.849-1.623
					c0.838-0.383,1.86-0.578,3.038-0.578c1.288,0,2.402,0.212,3.312,0.629c0.922,0.424,1.544,0.969,1.848,1.618
					c0.297,0.641,0.447,1.732,0.447,3.245v0.871h-4.811v-1.524c0-0.78-0.084-1.072-0.155-1.181
					c-0.093-0.142-0.249-0.211-0.478-0.211c-0.252,0-0.438,0.099-0.566,0.303c-0.137,0.218-0.207,0.564-0.207,1.031
					c0,0.609,0.081,1.068,0.24,1.365c0.152,0.298,0.603,0.669,1.341,1.107c2.225,1.319,3.589,2.377,4.172,3.232
					c0.579,0.85,0.873,2.228,0.873,4.095c0,1.359-0.164,2.379-0.487,3.031c-0.326,0.66-0.959,1.219-1.883,1.66
					C22.893,36.744,21.815,36.967,20.606,36.967z"/>
				<path fill="#58595B" d="M20.163,17.159c1.275,0,2.362,0.206,3.26,0.618c0.898,0.413,1.494,0.932,1.787,1.558
					c0.29,0.626,0.436,1.689,0.436,3.191v0.746h-4.561v-1.399c0-0.653-0.059-1.07-0.176-1.249c-0.116-0.178-0.311-0.268-0.582-0.268
					c-0.297,0-0.52,0.12-0.672,0.361s-0.227,0.607-0.227,1.098c0,0.631,0.084,1.105,0.255,1.424
					c0.163,0.319,0.626,0.704,1.388,1.155c2.188,1.298,3.564,2.362,4.132,3.195c0.567,0.832,0.852,2.174,0.852,4.024
					c0,1.345-0.157,2.337-0.474,2.976c-0.314,0.638-0.922,1.172-1.825,1.604c-0.902,0.432-1.952,0.648-3.149,0.648
					c-1.314,0-2.436-0.25-3.365-0.748c-0.93-0.497-1.539-1.131-1.826-1.9c-0.288-0.771-0.432-1.863-0.432-3.279v-1.236h4.562v2.299
					c0,0.707,0.063,1.162,0.192,1.364s0.355,0.304,0.682,0.304c0.327,0,0.57-0.129,0.729-0.385c0.159-0.257,0.239-0.638,0.239-1.144
					c0-1.112-0.15-1.84-0.455-2.182c-0.311-0.342-1.077-0.914-2.298-1.715c-1.222-0.81-2.03-1.396-2.427-1.762
					c-0.396-0.366-0.726-0.872-0.986-1.517c-0.26-0.646-0.391-1.471-0.391-2.474c0-1.446,0.186-2.504,0.555-3.173
					s0.967-1.192,1.791-1.569S18.997,17.159,20.163,17.159 M20.163,16.909c-1.196,0-2.236,0.198-3.09,0.589
					c-0.871,0.398-1.512,0.962-1.906,1.676c-0.395,0.714-0.586,1.792-0.586,3.293c0,1.029,0.138,1.893,0.409,2.567
					c0.273,0.676,0.626,1.217,1.049,1.607c0.41,0.377,1.214,0.962,2.458,1.787c1.199,0.786,1.956,1.349,2.251,1.674
					c0.177,0.199,0.39,0.711,0.39,2.014c0,0.455-0.068,0.796-0.202,1.012c-0.113,0.182-0.277,0.267-0.517,0.267
					c-0.351,0-0.441-0.142-0.471-0.188c-0.046-0.072-0.153-0.336-0.153-1.229v-2.299v-0.25h-0.25h-4.562h-0.25v0.25v1.236
					c0,1.439,0.15,2.572,0.447,3.367c0.308,0.824,0.961,1.508,1.943,2.033c0.963,0.516,2.135,0.777,3.483,0.777
					c1.228,0,2.324-0.227,3.257-0.673c0.95-0.454,1.603-1.032,1.941-1.719c0.336-0.678,0.5-1.688,0.5-3.086
					c0-1.893-0.301-3.294-0.895-4.165c-0.593-0.871-1.971-1.94-4.211-3.27c-0.894-0.53-1.196-0.866-1.292-1.054
					c-0.152-0.283-0.228-0.722-0.228-1.31c0-0.442,0.063-0.767,0.188-0.964c0.107-0.169,0.249-0.245,0.46-0.245
					c0.244,0,0.33,0.088,0.373,0.154c0.041,0.062,0.135,0.294,0.135,1.112v1.399v0.25h0.25h4.561h0.25v-0.25v-0.746
					c0-1.552-0.15-2.63-0.458-3.296c-0.317-0.678-0.96-1.243-1.91-1.68C22.601,17.125,21.469,16.909,20.163,16.909L20.163,16.909z"
					/>
			</g>
			<g>
				<path d="M27.124,38.234V24.632H31l-0.047,0.785c0.261-0.286,0.542-0.511,0.841-0.672c0.399-0.215,0.84-0.325,1.311-0.325
					c0.576,0,1.083,0.158,1.505,0.47c0.425,0.312,0.694,0.681,0.801,1.096c0.103,0.398,0.152,1.054,0.152,2.004v4.923
					c0,1.088-0.063,1.84-0.194,2.302c-0.132,0.475-0.409,0.86-0.823,1.145c-0.412,0.281-0.912,0.423-1.485,0.423
					c-0.459,0-0.891-0.109-1.285-0.325c-0.302-0.165-0.585-0.394-0.845-0.681v2.459H27.124z M31.362,26.74
					c-0.237,0-0.305,0.099-0.337,0.184c-0.042,0.111-0.093,0.415-0.093,1.232v4.845c0,0.854,0.053,1.164,0.097,1.274
					c0.032,0.08,0.102,0.186,0.341,0.186c0.254,0,0.294-0.115,0.31-0.158c0.035-0.102,0.077-0.381,0.077-1.135v-5.012
					c0-0.921-0.046-1.192-0.073-1.272C31.671,26.849,31.633,26.74,31.362,26.74z"/>
				<path fill="#58595B" d="M33.105,24.545c0.552,0,1.028,0.148,1.431,0.445c0.402,0.296,0.654,0.639,0.754,1.026
					c0.1,0.387,0.148,1.046,0.148,1.973v4.923c0,1.063-0.062,1.819-0.189,2.268c-0.125,0.449-0.385,0.809-0.773,1.076
					c-0.391,0.266-0.862,0.4-1.414,0.4c-0.441,0-0.849-0.104-1.225-0.31c-0.375-0.206-0.719-0.511-1.03-0.917v2.68h-3.558V24.757
					h3.619l-0.062,1.032c0.317-0.417,0.667-0.729,1.048-0.935C32.236,24.648,32.653,24.545,33.105,24.545 M31.37,34.586
					c0.229,0,0.371-0.08,0.428-0.242c0.056-0.161,0.084-0.553,0.084-1.176v-5.012c0-0.722-0.027-1.159-0.08-1.312
					c-0.053-0.152-0.199-0.229-0.439-0.229c-0.236,0-0.387,0.088-0.454,0.265c-0.067,0.176-0.102,0.602-0.102,1.276v4.845
					c0,0.704,0.035,1.145,0.106,1.321C30.983,34.498,31.135,34.586,31.37,34.586 M33.105,24.295c-0.491,0-0.952,0.114-1.37,0.339
					c-0.222,0.121-0.435,0.274-0.637,0.46l0.019-0.323l0.016-0.265h-0.265h-3.619h-0.25v0.25v13.353v0.25h0.25h3.558h0.25v-0.25
					v-2.028c0.208,0.195,0.429,0.357,0.66,0.484c0.413,0.227,0.865,0.341,1.345,0.341c0.599,0,1.122-0.149,1.555-0.443
					c0.44-0.303,0.733-0.712,0.874-1.216c0.134-0.472,0.199-1.235,0.199-2.335v-4.923c0-0.961-0.051-1.626-0.156-2.035
					c-0.114-0.443-0.399-0.835-0.848-1.165C34.24,24.461,33.708,24.295,33.105,24.295L33.105,24.295z M31.37,34.336
					c-0.182,0-0.21-0.069-0.225-0.106c-0.027-0.066-0.088-0.318-0.088-1.229v-4.845c0-0.871,0.06-1.12,0.085-1.187
					c0.015-0.039,0.04-0.104,0.221-0.104c0.055,0,0.185,0.006,0.203,0.061c0.016,0.044,0.066,0.268,0.066,1.23v5.012
					c0,0.804-0.049,1.033-0.07,1.094C31.553,34.285,31.535,34.336,31.37,34.336L31.37,34.336z"/>
			</g>
			<g>
				<path d="M40.618,36.781c-0.792,0-1.477-0.089-2.037-0.266c-0.566-0.181-1.014-0.457-1.33-0.821
					c-0.315-0.364-0.542-0.808-0.675-1.319c-0.131-0.504-0.197-1.266-0.197-2.264v-2.995c0-1.097,0.122-1.968,0.361-2.59
					c0.245-0.634,0.689-1.149,1.32-1.533c0.628-0.381,1.438-0.574,2.408-0.574c0.812,0,1.52,0.124,2.104,0.367
					c0.589,0.244,1.051,0.569,1.374,0.965c0.321,0.394,0.544,0.806,0.662,1.226c0.117,0.415,0.177,1.048,0.177,1.883v2.862
					c0,1.072-0.053,1.837-0.162,2.338c-0.109,0.508-0.346,0.987-0.703,1.427c-0.358,0.44-0.825,0.771-1.388,0.98
					C41.978,36.676,41.333,36.781,40.618,36.781z M40.591,26.74c-0.212,0-0.278,0.091-0.309,0.16
					c-0.043,0.095-0.094,0.359-0.094,1.08v5.275c0,0.664,0.052,0.927,0.096,1.03c0.051,0.121,0.143,0.175,0.299,0.175
					c0.211,0,0.275-0.088,0.305-0.154c0.041-0.093,0.09-0.331,0.09-0.937v-5.39c0-0.722-0.047-0.988-0.087-1.084
					C40.862,26.83,40.801,26.74,40.591,26.74z"/>
				<path fill="#58595B" d="M40.468,24.545c0.798,0,1.484,0.119,2.057,0.357c0.572,0.237,1.015,0.548,1.325,0.929
					c0.312,0.382,0.524,0.775,0.639,1.181c0.114,0.404,0.172,1.021,0.172,1.85v2.862c0,1.052-0.053,1.822-0.159,2.312
					c-0.105,0.49-0.332,0.949-0.678,1.374c-0.347,0.427-0.792,0.74-1.334,0.942c-0.544,0.203-1.167,0.305-1.872,0.305
					c-0.786,0-1.453-0.088-1.999-0.26c-0.546-0.174-0.971-0.436-1.272-0.784c-0.303-0.35-0.52-0.772-0.648-1.269
					s-0.193-1.24-0.193-2.232v-2.995c0-1.086,0.117-1.934,0.353-2.545c0.235-0.61,0.658-1.101,1.269-1.471
					S39.517,24.545,40.468,24.545 M40.583,34.586c0.211,0,0.351-0.076,0.419-0.229c0.067-0.153,0.101-0.482,0.101-0.987v-5.39
					c0-0.599-0.032-0.977-0.097-1.132s-0.202-0.233-0.414-0.233c-0.211,0-0.353,0.078-0.423,0.233s-0.105,0.533-0.105,1.132v5.275
					c0,0.553,0.035,0.912,0.105,1.079S40.377,34.586,40.583,34.586 M40.468,24.295c-0.993,0-1.825,0.199-2.473,0.592
					c-0.656,0.398-1.117,0.934-1.372,1.595c-0.249,0.646-0.369,1.507-0.369,2.635v2.995c0,1.023,0.066,1.773,0.201,2.295
					c0.138,0.53,0.374,0.991,0.702,1.37c0.331,0.382,0.797,0.671,1.386,0.858c0.572,0.181,1.27,0.271,2.075,0.271
					c0.731,0,1.39-0.107,1.959-0.32c0.583-0.218,1.068-0.561,1.44-1.02c0.37-0.454,0.615-0.951,0.729-1.479
					c0.111-0.51,0.165-1.283,0.165-2.364v-2.862c0-0.859-0.059-1.486-0.181-1.917c-0.123-0.437-0.354-0.864-0.686-1.271
					c-0.336-0.412-0.815-0.75-1.423-1.001C42.021,24.422,41.296,24.295,40.468,24.295L40.468,24.295z M40.583,34.336
					c-0.131,0-0.162-0.046-0.184-0.098c-0.032-0.076-0.086-0.306-0.086-0.982V27.98c0-0.763,0.058-0.974,0.083-1.029
					c0.014-0.03,0.04-0.086,0.195-0.086c0.15,0,0.171,0.05,0.183,0.079c0.023,0.056,0.078,0.27,0.078,1.036v5.39
					c0,0.637-0.056,0.832-0.08,0.887C40.761,34.283,40.737,34.336,40.583,34.336L40.583,34.336z"/>
			</g>
			<g>
				<path d="M49.257,36.569c-0.813,0-1.405-0.035-1.758-0.104c-0.367-0.071-0.696-0.239-0.977-0.497
					c-0.284-0.262-0.463-0.566-0.531-0.905c-0.066-0.322-0.1-1.076-0.1-2.239v-5.811h-0.766v-2.1h0.766v-1.841h3.817v1.841h0.96v2.1
					h-0.96v6.128c0,0.995,0.068,1.174,0.089,1.205c0.007,0.006,0.124,0.089,0.895,0.089h0.125v2.134H49.257z"/>
				<path fill="#58595B" d="M49.583,23.198v1.841h0.96v1.85h-0.96v6.253c0,0.77,0.04,1.198,0.119,1.286s0.41,0.133,0.99,0.133v1.884
					h-1.436c-0.81,0-1.389-0.034-1.734-0.102c-0.347-0.067-0.651-0.223-0.916-0.466c-0.265-0.244-0.43-0.523-0.493-0.838
					c-0.064-0.313-0.098-1.053-0.098-2.215v-5.936H45.25v-1.85h0.766v-1.841H49.583 M49.833,22.948h-0.25h-3.567h-0.25v0.25v1.591
					H45.25H45v0.25v1.85v0.25h0.25h0.516v5.686c0,1.188,0.034,1.929,0.103,2.266c0.074,0.363,0.265,0.69,0.569,0.971
					c0.298,0.274,0.647,0.452,1.038,0.527c0.367,0.071,0.95,0.106,1.782,0.106h1.436h0.25v-0.25v-1.884v-0.25h-0.25
					c-0.526,0-0.727-0.039-0.797-0.06c-0.022-0.087-0.062-0.351-0.062-1.109v-6.003h0.71h0.25v-0.25v-1.85v-0.25h-0.25h-0.71v-1.591
					V22.948L49.833,22.948z"/>
			</g>
			<g>
				<path d="M54.753,36.569c-0.813,0-1.405-0.035-1.759-0.104c-0.367-0.071-0.696-0.239-0.977-0.497
					c-0.283-0.262-0.462-0.566-0.531-0.904c-0.067-0.325-0.099-1.058-0.099-2.24v-5.811h-0.766v-2.1h0.766v-1.841h3.817v1.841h0.96
					v2.1h-0.96v6.128c0,0.996,0.067,1.175,0.088,1.205c0.007,0.006,0.125,0.089,0.896,0.089h0.125v2.134H54.753z"/>
				<path fill="#58595B" d="M55.08,23.198v1.841h0.96v1.85h-0.96v6.253c0,0.77,0.039,1.198,0.118,1.286s0.41,0.133,0.991,0.133
					v1.884h-1.436c-0.811,0-1.389-0.034-1.735-0.102s-0.651-0.223-0.916-0.466c-0.264-0.244-0.429-0.523-0.493-0.838
					c-0.064-0.313-0.097-1.053-0.097-2.215v-5.936h-0.766v-1.85h0.766v-1.841H55.08 M55.33,22.948h-0.25h-3.567h-0.25v0.25v1.591
					h-0.516h-0.25v0.25v1.85v0.25h0.25h0.516v5.686c0,1.191,0.033,1.932,0.102,2.266c0.075,0.364,0.266,0.69,0.568,0.971
					c0.299,0.274,0.648,0.452,1.038,0.527c0.368,0.071,0.951,0.106,1.783,0.106h1.436h0.25v-0.25v-1.884v-0.25h-0.25
					c-0.526,0-0.728-0.039-0.798-0.06c-0.021-0.087-0.062-0.351-0.062-1.109v-6.003h0.71h0.25v-0.25v-1.85v-0.25h-0.25h-0.71v-1.591
					V22.948L55.33,22.948z"/>
			</g>
			<g>
				<path d="M60.901,36.781c-0.762,0-1.446-0.112-2.034-0.334c-0.59-0.223-1.06-0.535-1.395-0.931
					c-0.331-0.393-0.562-0.829-0.689-1.299c-0.126-0.462-0.19-1.142-0.19-2.019V28.79c0-1.033,0.143-1.865,0.426-2.471
					c0.287-0.613,0.763-1.089,1.414-1.414c0.644-0.322,1.391-0.486,2.222-0.486c1.016,0,1.868,0.197,2.534,0.586
					c0.67,0.391,1.146,0.917,1.417,1.564c0.267,0.637,0.401,1.541,0.401,2.687v1.675H60.4v2.403c0,0.631,0.056,0.873,0.102,0.965
					c0.035,0.069,0.106,0.16,0.329,0.16c0.29,0,0.383-0.131,0.427-0.229c0.084-0.185,0.126-0.562,0.126-1.125V31.44h3.623v0.987
					c0,0.74-0.046,1.294-0.139,1.693c-0.095,0.401-0.316,0.835-0.661,1.289c-0.348,0.457-0.793,0.804-1.323,1.03
					C62.353,36.666,61.686,36.781,60.901,36.781z M61.19,28.779v-0.729c0-0.731-0.049-1.017-0.089-1.128
					c-0.046-0.126-0.133-0.183-0.279-0.183c-0.285,0-0.327,0.109-0.342,0.145c-0.036,0.092-0.08,0.369-0.08,1.166v0.729H61.19z"/>
				<path fill="#58595B" d="M60.654,24.545c0.998,0,1.822,0.19,2.471,0.569c0.648,0.378,1.104,0.881,1.365,1.505
					c0.262,0.626,0.392,1.505,0.392,2.639v1.55h-4.606v2.528c0,0.527,0.038,0.868,0.115,1.021c0.076,0.152,0.223,0.229,0.44,0.229
					c0.27,0,0.45-0.102,0.541-0.304c0.092-0.202,0.137-0.595,0.137-1.176v-1.541h3.373v0.862c0,0.723-0.045,1.277-0.136,1.665
					s-0.305,0.802-0.639,1.242c-0.335,0.439-0.759,0.771-1.272,0.99c-0.515,0.22-1.158,0.331-1.934,0.331
					c-0.752,0-1.415-0.109-1.99-0.326c-0.576-0.217-1.022-0.516-1.344-0.895c-0.319-0.379-0.541-0.795-0.664-1.25
					c-0.124-0.455-0.186-1.117-0.186-1.986V28.79c0-1.021,0.139-1.827,0.414-2.418c0.275-0.589,0.728-1.041,1.356-1.354
					C59.116,24.703,59.838,24.545,60.654,24.545 M60.275,28.904h1.04v-0.854c0-0.604-0.032-0.995-0.097-1.171
					c-0.064-0.177-0.197-0.265-0.396-0.265c-0.247,0-0.399,0.074-0.458,0.225c-0.06,0.149-0.089,0.554-0.089,1.211V28.904
					 M60.654,24.295c-0.851,0-1.617,0.168-2.278,0.499c-0.677,0.337-1.172,0.833-1.471,1.472c-0.291,0.623-0.438,1.472-0.438,2.524
					v3.409c0,0.901,0.063,1.572,0.194,2.052c0.131,0.486,0.372,0.939,0.714,1.346c0.35,0.412,0.836,0.737,1.447,0.968
					c0.603,0.227,1.302,0.342,2.078,0.342c0.803,0,1.486-0.118,2.032-0.352c0.55-0.234,1.012-0.595,1.373-1.068
					c0.355-0.469,0.585-0.918,0.683-1.337c0.096-0.408,0.143-0.972,0.143-1.722v-0.862v-0.25h-0.25h-3.373h-0.25v0.25v1.541
					c0,0.679-0.062,0.958-0.114,1.072c-0.035,0.078-0.1,0.157-0.313,0.157c-0.172,0-0.202-0.061-0.217-0.09
					c-0.027-0.054-0.089-0.248-0.089-0.91v-2.278h4.356h0.25v-0.25v-1.55c0-1.179-0.135-2.074-0.411-2.735
					c-0.281-0.673-0.775-1.22-1.47-1.624C62.565,24.498,61.692,24.295,60.654,24.295L60.654,24.295z M60.525,28.654v-0.604
					c0-0.872,0.055-1.077,0.071-1.118c0.023-0.061,0.166-0.067,0.226-0.067c0.106,0,0.137,0.032,0.162,0.1
					c0.03,0.083,0.081,0.334,0.081,1.085v0.604H60.525L60.525,28.654z"/>
			</g>
			<g>
				<path d="M65.919,36.569V24.632h3.819l-0.099,1.077c0.517-0.799,1.207-1.232,2.059-1.289l0.134-0.009v4.372h-0.125
					c-0.626,0-1.088,0.083-1.373,0.248c-0.276,0.16-0.441,0.374-0.504,0.654c-0.068,0.302-0.104,1.023-0.104,2.145v4.739H65.919z"/>
				<path fill="#58595B" d="M71.708,24.545v4.113c-0.652,0-1.131,0.089-1.436,0.265c-0.306,0.177-0.493,0.421-0.563,0.735
					c-0.071,0.313-0.106,1.038-0.106,2.172v4.614h-3.558V24.757h3.558l-0.141,1.536C69.978,25.193,70.727,24.61,71.708,24.545
					 M71.958,24.278l-0.267,0.018c-0.753,0.05-1.384,0.378-1.885,0.977l0.045-0.492l0.025-0.273h-0.274h-3.558h-0.25v0.25v11.688
					v0.25h0.25h3.558h0.25v-0.25V31.83c0-1.112,0.034-1.824,0.101-2.116c0.055-0.245,0.2-0.434,0.444-0.574
					c0.266-0.153,0.707-0.231,1.311-0.231h0.25v-0.25v-4.113V24.278L71.958,24.278z"/>
			</g>
			<g>
				<path d="M81.625,47.075v-2.78c-3.936-0.282-7.701-1.895-10.613-4.546l-0.093-0.085l1.649-1.811l0.092,0.084
					c2.464,2.242,5.643,3.624,8.965,3.9v-2.15h2.449v2.156c7.51-0.583,13.485-6.63,13.979-14.145h-2.432v-2.45h2.395
					c-0.691-7.279-6.65-13.136-13.941-13.704v2.157h-2.449v-2.154c-5.754,0.469-10.663,4.082-12.834,9.454l-0.047,0.116
					l-2.272-0.919l0.047-0.116c2.554-6.313,8.335-10.516,15.106-10.99V6.314h2.449v2.773c8.673,0.58,15.692,7.498,16.398,16.161
					h2.537v2.45h-2.501c-0.501,8.902-7.536,16.01-16.435,16.602v2.774H81.625z"/>
				<path fill="#58595B" d="M83.95,6.439v2.766c8.732,0.525,15.757,7.472,16.408,16.169h2.527v2.2h-2.494
					C99.949,36.479,92.83,43.65,83.95,44.184v2.767H81.75v-2.772c-3.957-0.257-7.705-1.836-10.654-4.521l1.48-1.626
					c2.544,2.315,5.766,3.69,9.174,3.942v-2.16h2.199v2.166c7.665-0.527,13.799-6.714,14.236-14.404h-2.439v-2.2h2.406
					c-0.643-7.483-6.684-13.445-14.203-13.963v2.166H81.75v-2.164c-5.81,0.424-10.865,4.074-13.075,9.542l-2.04-0.825
					c2.549-6.303,8.403-10.493,15.115-10.92V6.439H83.95 M84.2,6.189h-0.25H81.75H81.5v0.25v2.538
					c-6.77,0.517-12.54,4.737-15.097,11.059l-0.094,0.232l0.231,0.094l2.04,0.825l0.231,0.094l0.094-0.232
					c2.137-5.286,6.946-8.854,12.594-9.364v1.893v0.25h0.25h2.199h0.25v-0.25v-1.896c7.124,0.62,12.936,6.333,13.679,13.443h-2.132
					h-0.25v0.25v2.2v0.25h0.25h2.173c-0.547,7.347-6.38,13.248-13.72,13.884v-1.896v-0.25h-0.25H81.75H81.5v0.25v1.889
					c-3.246-0.3-6.346-1.662-8.756-3.855l-0.185-0.169l-0.168,0.186l-1.48,1.626l-0.169,0.185l0.186,0.168
					c2.904,2.646,6.65,4.263,10.572,4.569v2.54v0.25h0.25h2.199h0.25v-0.25v-2.532c8.867-0.648,15.87-7.723,16.428-16.594h2.258
					h0.25v-0.25v-2.2v-0.25h-0.25h-2.297C99.828,16.493,92.841,9.606,84.2,8.971V6.439V6.189L84.2,6.189z"/>
			</g>
		</g>
	</g>
</g>
</svg>
