<?xml version="1.0" encoding="utf-8"?>
<!-- Generator: Adobe Illustrator 15.1.0, SVG Export Plug-In . SVG Version: 6.00 Build 0)  -->
<!DOCTYPE svg PUBLIC "-//W3C//DTD SVG 1.1//EN" "http://www.w3.org/Graphics/SVG/1.1/DTD/svg11.dtd">
<svg version="1.1" id="Layer_1" xmlns="http://www.w3.org/2000/svg" xmlns:xlink="http://www.w3.org/1999/xlink" x="0px" y="0px"
	 width="117.715px" height="54px" viewBox="0 0 117.715 54" enable-background="new 0 0 117.715 54" xml:space="preserve">
<path fill="#414042" stroke="#353434" d="M117.215,41.5c0,6.627-5.373,12-12,12H12.5c-6.627,0-12-5.373-12-12v-29
	c0-6.627,5.373-12,12-12h92.715c6.627,0,12,5.373,12,12V41.5z"/>
<path fill="#87412E" d="M72.846,17.556h3.478c2.317,0,3.887,0.089,4.706,0.269c0.82,0.179,1.49,0.636,2.008,1.371
	c0.518,0.735,0.775,1.908,0.775,3.517c0,1.47-0.184,2.459-0.549,2.963c-0.365,0.506-1.084,0.81-2.158,0.91
	c0.973,0.242,1.625,0.564,1.961,0.969c0.334,0.404,0.541,0.775,0.623,1.113s0.123,1.27,0.123,2.794v4.981H79.25v-6.276
	c0-1.011-0.079-1.637-0.238-1.878c-0.16-0.241-0.578-0.361-1.255-0.361v8.516h-4.911V17.556z M77.757,20.788v4.2
	c0.552,0,0.938-0.076,1.161-0.228c0.223-0.151,0.332-0.644,0.332-1.475v-1.039c0-0.599-0.105-0.992-0.32-1.178
	C78.716,20.881,78.325,20.788,77.757,20.788z"/>
<path fill="#87412E" d="M85.713,17.556h8.319v3.78h-3.407v3.582h3.033v3.593h-3.033v7.933h-4.912V17.556z"/>
<g>
	<path fill="#231F20" d="M25.646,23.272h-4.562v-1.4c0-0.653-0.058-1.07-0.175-1.249c-0.116-0.178-0.311-0.268-0.583-0.268
		c-0.296,0-0.52,0.12-0.671,0.361c-0.152,0.241-0.228,0.607-0.228,1.098c0,0.63,0.085,1.105,0.255,1.424
		c0.163,0.319,0.625,0.704,1.388,1.155c2.187,1.298,3.563,2.362,4.131,3.195c0.568,0.832,0.852,2.174,0.852,4.023
		c0,1.347-0.158,2.339-0.473,2.977c-0.315,0.639-0.923,1.173-1.826,1.604c-0.902,0.434-1.952,0.648-3.149,0.648
		c-1.315,0-2.436-0.249-3.366-0.747c-0.93-0.498-1.538-1.131-1.826-1.901s-0.432-1.861-0.432-3.277v-1.236h4.562v2.299
		c0,0.707,0.063,1.162,0.193,1.363c0.128,0.203,0.355,0.305,0.682,0.305s0.57-0.129,0.729-0.385c0.16-0.258,0.24-0.639,0.24-1.145
		c0-1.111-0.151-1.84-0.455-2.182c-0.312-0.343-1.078-0.914-2.298-1.715c-1.221-0.809-2.03-1.396-2.427-1.761
		c-0.396-0.366-0.726-0.872-0.986-1.517c-0.261-0.646-0.391-1.47-0.391-2.474c0-1.446,0.185-2.503,0.554-3.173
		c0.37-0.669,0.967-1.192,1.792-1.569c0.824-0.377,1.82-0.566,2.986-0.566c1.276,0,2.363,0.206,3.261,0.618
		c0.898,0.413,1.494,0.932,1.786,1.558c0.291,0.626,0.437,1.689,0.437,3.191V23.272z"/>
	<path fill="#231F20" d="M30.868,24.756l-0.062,1.033c0.317-0.417,0.667-0.729,1.048-0.935s0.798-0.309,1.25-0.309
		c0.551,0,1.029,0.148,1.431,0.445c0.402,0.296,0.653,0.639,0.753,1.026c0.1,0.387,0.149,1.046,0.149,1.973v4.923
		c0,1.062-0.062,1.818-0.189,2.268c-0.126,0.449-0.385,0.809-0.774,1.075c-0.391,0.267-0.862,0.4-1.414,0.4
		c-0.441,0-0.849-0.104-1.225-0.31c-0.375-0.205-0.719-0.512-1.03-0.918v2.68h-3.558V24.756H30.868z M31.881,28.156
		c0-0.722-0.026-1.16-0.079-1.312c-0.053-0.152-0.2-0.229-0.44-0.229c-0.235,0-0.386,0.088-0.454,0.265
		c-0.068,0.176-0.102,0.602-0.102,1.277V33c0,0.705,0.035,1.145,0.106,1.32c0.071,0.177,0.223,0.266,0.458,0.266
		c0.229,0,0.371-0.08,0.427-0.242c0.056-0.162,0.084-0.554,0.084-1.176V28.156z"/>
	<path fill="#231F20" d="M44.661,28.861v2.861c0,1.051-0.053,1.821-0.159,2.312c-0.105,0.489-0.332,0.948-0.678,1.373
		c-0.347,0.427-0.792,0.739-1.334,0.942c-0.544,0.202-1.167,0.305-1.872,0.305c-0.786,0-1.453-0.088-1.999-0.26
		c-0.546-0.174-0.971-0.436-1.272-0.785c-0.303-0.35-0.519-0.771-0.648-1.268c-0.13-0.496-0.193-1.24-0.193-2.232v-2.995
		c0-1.085,0.117-1.933,0.352-2.544c0.235-0.61,0.658-1.101,1.269-1.471c0.61-0.37,1.392-0.555,2.343-0.555
		c0.798,0,1.484,0.119,2.057,0.357c0.572,0.237,1.015,0.547,1.325,0.929c0.312,0.382,0.524,0.775,0.639,1.181
		C44.603,27.416,44.661,28.033,44.661,28.861z M41.102,27.98c0-0.6-0.032-0.977-0.097-1.131c-0.064-0.156-0.202-0.234-0.414-0.234
		c-0.211,0-0.353,0.078-0.423,0.234c-0.07,0.155-0.105,0.533-0.105,1.131v5.275c0,0.553,0.035,0.911,0.105,1.078
		c0.07,0.168,0.209,0.252,0.414,0.252c0.211,0,0.351-0.076,0.419-0.229c0.067-0.153,0.101-0.481,0.101-0.987V27.98z"/>
	<path fill="#231F20" d="M49.583,23.198v1.841h0.96v1.85h-0.96v6.251c0,0.771,0.04,1.198,0.119,1.287
		c0.079,0.088,0.41,0.133,0.99,0.133v1.883h-1.436c-0.81,0-1.389-0.032-1.734-0.102c-0.347-0.066-0.651-0.223-0.916-0.466
		s-0.43-0.522-0.493-0.837c-0.064-0.314-0.098-1.053-0.098-2.215v-5.936H45.25v-1.85h0.766v-1.841L49.583,23.198L49.583,23.198z"/>
	<path fill="#231F20" d="M55.08,23.198v1.841h0.96v1.85h-0.96v6.251c0,0.771,0.039,1.198,0.118,1.287
		c0.079,0.088,0.41,0.133,0.991,0.133v1.883h-1.436c-0.811,0-1.389-0.032-1.735-0.102c-0.347-0.066-0.651-0.223-0.916-0.466
		c-0.264-0.243-0.429-0.522-0.493-0.837s-0.097-1.053-0.097-2.215v-5.936h-0.766v-1.85h0.766v-1.841L55.08,23.198L55.08,23.198z"/>
	<path fill="#231F20" d="M64.881,30.807h-4.605v2.528c0,0.528,0.037,0.868,0.115,1.021c0.075,0.153,0.223,0.229,0.439,0.229
		c0.27,0,0.449-0.103,0.541-0.305s0.137-0.595,0.137-1.177v-1.541h3.373v0.863c0,0.723-0.045,1.277-0.136,1.664
		c-0.091,0.389-0.306,0.803-0.64,1.242s-0.758,0.771-1.271,0.99c-0.516,0.221-1.158,0.33-1.934,0.33
		c-0.752,0-1.416-0.107-1.99-0.324c-0.576-0.219-1.022-0.518-1.344-0.895c-0.319-0.379-0.541-0.795-0.664-1.252
		c-0.124-0.453-0.186-1.117-0.186-1.984V28.79c0-1.021,0.139-1.827,0.414-2.418c0.275-0.589,0.728-1.042,1.356-1.355
		c0.628-0.314,1.351-0.472,2.167-0.472c0.998,0,1.822,0.19,2.471,0.569c0.648,0.378,1.104,0.881,1.365,1.505
		c0.262,0.626,0.392,1.505,0.392,2.639L64.881,30.807L64.881,30.807z M61.314,28.904V28.05c0-0.605-0.031-0.995-0.097-1.171
		c-0.065-0.176-0.196-0.265-0.396-0.265c-0.247,0-0.399,0.075-0.459,0.225c-0.059,0.149-0.088,0.554-0.088,1.211v0.854H61.314z"/>
	<path fill="#231F20" d="M69.602,24.756l-0.141,1.537c0.518-1.1,1.266-1.683,2.246-1.748v4.113c-0.652,0-1.131,0.088-1.436,0.264
		c-0.307,0.178-0.494,0.422-0.563,0.736c-0.071,0.312-0.106,1.037-0.106,2.171v4.614h-3.558V24.756H69.602z"/>
	<path fill="#231F20" d="M100.357,25.374C99.707,16.676,92.682,9.73,83.95,9.205V6.439h-2.2V9.21
		c-6.712,0.427-12.566,4.618-15.115,10.92l2.04,0.825c2.21-5.468,7.267-9.118,13.075-9.542v2.164h2.199v-2.166
		c7.52,0.518,13.561,6.479,14.203,13.963h-2.406v2.2h2.439c-0.438,7.689-6.572,13.876-14.236,14.404v-2.166H81.75v2.16
		c-3.408-0.253-6.63-1.628-9.174-3.943l-1.48,1.627c2.949,2.686,6.697,4.264,10.654,4.521v2.772h2.199v-2.768
		c8.88-0.531,15.999-7.705,16.441-16.607h2.493v-2.2H100.357z"/>
</g>
<g id="Layer_2" display="none">
	<g display="inline">
		<path fill="#E6E7E8" stroke="#BCBEC0" d="M117.215,41.5c0,6.628-5.373,12-12,12H12.5c-6.628,0-12-5.372-12-12v-29
			c0-6.627,5.372-12,12-12h92.715c6.627,0,12,5.373,12,12V41.5z"/>
		<path fill="#F19D21" stroke="#E48325" stroke-width="0.25" d="M72.846,17.556h3.478c2.317,0,3.887,0.09,4.706,0.269
			c0.82,0.179,1.49,0.636,2.008,1.371c0.518,0.735,0.775,1.907,0.775,3.517c0,1.471-0.184,2.459-0.549,2.964
			c-0.365,0.506-1.084,0.81-2.158,0.91c0.973,0.241,1.625,0.564,1.961,0.968c0.334,0.405,0.541,0.776,0.623,1.115
			c0.082,0.338,0.123,1.27,0.123,2.794v4.981H79.25v-6.277c0-1.01-0.079-1.637-0.238-1.878c-0.16-0.241-0.578-0.36-1.255-0.36v8.516
			h-4.911V17.556z M77.757,20.788v4.199c0.552,0,0.938-0.075,1.161-0.228c0.223-0.151,0.332-0.644,0.332-1.476v-1.038
			c0-0.6-0.105-0.992-0.32-1.179C78.716,20.882,78.325,20.788,77.757,20.788z"/>
		<path fill="#F19D21" stroke="#E48325" stroke-width="0.25" d="M85.713,17.556h8.319v3.78h-3.407v3.582h3.033v3.593h-3.033v7.935
			h-4.912V17.556z"/>
		<g>
			<g>
				<path fill="#231F20" d="M20.606,36.967c-1.327,0-2.479-0.257-3.424-0.763c-0.954-0.511-1.587-1.172-1.884-1.968
					c-0.292-0.779-0.439-1.897-0.439-3.322v-1.361h4.812v2.424c0,0.849,0.094,1.174,0.173,1.297
					c0.105,0.166,0.294,0.246,0.576,0.246c0.283,0,0.487-0.105,0.624-0.326c0.146-0.234,0.22-0.598,0.22-1.076
					c0-1.077-0.143-1.783-0.423-2.1c-0.302-0.332-1.067-0.901-2.273-1.692c-1.222-0.81-2.044-1.407-2.443-1.774
					c-0.409-0.377-0.751-0.903-1.018-1.562c-0.266-0.659-0.4-1.507-0.4-2.521c0-1.459,0.192-2.547,0.57-3.233
					c0.38-0.689,1.002-1.236,1.849-1.623c0.838-0.383,1.86-0.578,3.038-0.578c1.288,0,2.402,0.212,3.312,0.629
					c0.922,0.424,1.544,0.969,1.848,1.618c0.297,0.641,0.447,1.732,0.447,3.245v0.871H20.96v-1.524c0-0.78-0.084-1.072-0.155-1.181
					c-0.093-0.142-0.249-0.211-0.478-0.211c-0.252,0-0.438,0.099-0.566,0.303c-0.137,0.218-0.207,0.564-0.207,1.031
					c0,0.609,0.081,1.068,0.24,1.365c0.152,0.298,0.603,0.669,1.341,1.107c2.225,1.319,3.589,2.377,4.172,3.232
					c0.579,0.85,0.873,2.228,0.873,4.095c0,1.358-0.164,2.379-0.487,3.03c-0.326,0.66-0.959,1.22-1.883,1.66
					C22.893,36.744,21.815,36.967,20.606,36.967z"/>
				<path fill="#58595B" d="M20.163,17.159c1.275,0,2.362,0.206,3.26,0.618c0.898,0.413,1.494,0.932,1.787,1.558
					c0.29,0.626,0.436,1.689,0.436,3.191v0.746h-4.561v-1.399c0-0.653-0.059-1.07-0.176-1.249c-0.116-0.178-0.311-0.268-0.582-0.268
					c-0.297,0-0.52,0.12-0.672,0.361c-0.152,0.241-0.227,0.607-0.227,1.098c0,0.631,0.084,1.105,0.255,1.424
					c0.163,0.319,0.626,0.704,1.388,1.155c2.188,1.298,3.564,2.362,4.132,3.195c0.567,0.832,0.852,2.175,0.852,4.024
					c0,1.345-0.157,2.337-0.474,2.976c-0.314,0.638-0.922,1.172-1.825,1.604c-0.902,0.432-1.952,0.647-3.149,0.647
					c-1.314,0-2.436-0.25-3.365-0.748c-0.93-0.497-1.539-1.131-1.826-1.899c-0.288-0.771-0.432-1.863-0.432-3.279v-1.236h4.562
					v2.299c0,0.707,0.063,1.162,0.192,1.364c0.129,0.202,0.355,0.304,0.682,0.304s0.57-0.129,0.729-0.385
					c0.159-0.257,0.239-0.638,0.239-1.144c0-1.112-0.15-1.841-0.455-2.183c-0.311-0.342-1.077-0.914-2.298-1.715
					c-1.222-0.81-2.03-1.396-2.427-1.762c-0.396-0.366-0.726-0.872-0.986-1.517c-0.26-0.646-0.391-1.471-0.391-2.474
					c0-1.446,0.186-2.504,0.555-3.173c0.369-0.669,0.967-1.192,1.791-1.569C18.001,17.347,18.997,17.159,20.163,17.159
					 M20.163,16.909c-1.196,0-2.236,0.198-3.09,0.589c-0.871,0.398-1.512,0.962-1.906,1.676c-0.395,0.714-0.586,1.792-0.586,3.293
					c0,1.029,0.138,1.893,0.409,2.567c0.273,0.676,0.626,1.217,1.049,1.607c0.41,0.377,1.214,0.962,2.458,1.787
					c1.199,0.786,1.956,1.35,2.251,1.674c0.177,0.199,0.39,0.711,0.39,2.015c0,0.454-0.068,0.796-0.202,1.012
					c-0.113,0.183-0.277,0.267-0.517,0.267c-0.351,0-0.441-0.142-0.471-0.188c-0.046-0.072-0.153-0.336-0.153-1.229V29.68v-0.25
					h-0.25h-4.562h-0.25v0.25v1.235c0,1.438,0.15,2.571,0.447,3.367c0.308,0.823,0.961,1.508,1.943,2.032
					c0.963,0.517,2.135,0.777,3.483,0.777c1.228,0,2.324-0.227,3.257-0.673c0.95-0.454,1.603-1.032,1.941-1.719
					c0.336-0.679,0.5-1.688,0.5-3.086c0-1.894-0.301-3.294-0.895-4.165c-0.593-0.871-1.971-1.94-4.211-3.27
					c-0.894-0.53-1.196-0.866-1.292-1.054c-0.152-0.283-0.228-0.722-0.228-1.31c0-0.442,0.063-0.767,0.188-0.964
					c0.107-0.169,0.249-0.245,0.46-0.245c0.244,0,0.33,0.088,0.373,0.154c0.041,0.062,0.135,0.294,0.135,1.112v1.399v0.25h0.25
					h4.561h0.25v-0.25v-0.746c0-1.552-0.15-2.63-0.458-3.296c-0.317-0.678-0.96-1.243-1.91-1.68
					C22.601,17.125,21.469,16.909,20.163,16.909L20.163,16.909z"/>
			</g>
			<g>
				<path fill="#231F20" d="M27.124,38.234V24.632H31l-0.047,0.785c0.261-0.286,0.542-0.511,0.841-0.672
					c0.399-0.215,0.84-0.325,1.311-0.325c0.576,0,1.083,0.158,1.505,0.47c0.425,0.312,0.694,0.681,0.801,1.096
					c0.103,0.398,0.152,1.054,0.152,2.004v4.923c0,1.088-0.063,1.84-0.194,2.302c-0.132,0.475-0.409,0.86-0.823,1.145
					c-0.412,0.281-0.912,0.424-1.485,0.424c-0.459,0-0.891-0.109-1.285-0.325c-0.302-0.165-0.585-0.394-0.845-0.681v2.459h-3.807
					V38.234z M31.362,26.74c-0.237,0-0.305,0.099-0.337,0.184c-0.042,0.111-0.093,0.415-0.093,1.232v4.845
					c0,0.854,0.053,1.164,0.097,1.274c0.032,0.08,0.102,0.186,0.341,0.186c0.254,0,0.294-0.115,0.31-0.158
					c0.035-0.102,0.077-0.381,0.077-1.135v-5.012c0-0.921-0.046-1.192-0.073-1.272C31.671,26.849,31.633,26.74,31.362,26.74z"/>
				<path fill="#58595B" d="M33.105,24.545c0.552,0,1.028,0.148,1.431,0.445c0.402,0.296,0.654,0.639,0.754,1.026
					c0.1,0.387,0.148,1.046,0.148,1.973v4.923c0,1.062-0.062,1.818-0.189,2.268c-0.125,0.449-0.385,0.81-0.773,1.076
					c-0.391,0.266-0.862,0.4-1.414,0.4c-0.441,0-0.849-0.104-1.225-0.311c-0.375-0.205-0.719-0.511-1.03-0.916v2.68h-3.558V24.757
					h3.619l-0.062,1.032c0.317-0.417,0.667-0.729,1.048-0.935C32.236,24.648,32.653,24.545,33.105,24.545 M31.37,34.586
					c0.229,0,0.371-0.08,0.428-0.242c0.056-0.16,0.084-0.553,0.084-1.176v-5.012c0-0.722-0.027-1.159-0.08-1.312
					c-0.053-0.152-0.199-0.229-0.439-0.229c-0.236,0-0.387,0.088-0.454,0.265c-0.067,0.176-0.102,0.602-0.102,1.276v4.845
					c0,0.704,0.035,1.146,0.106,1.321C30.983,34.498,31.135,34.586,31.37,34.586 M33.105,24.295c-0.491,0-0.952,0.114-1.37,0.339
					c-0.222,0.121-0.435,0.274-0.637,0.46l0.019-0.323l0.016-0.265h-0.265h-3.619h-0.25v0.25v13.354v0.25h0.25h3.558h0.25v-0.25
					v-2.028c0.208,0.194,0.429,0.356,0.66,0.483c0.413,0.228,0.865,0.342,1.345,0.342c0.599,0,1.122-0.149,1.555-0.443
					c0.44-0.303,0.733-0.712,0.874-1.216c0.134-0.472,0.199-1.235,0.199-2.335v-4.923c0-0.961-0.051-1.626-0.156-2.035
					c-0.114-0.443-0.399-0.835-0.848-1.165C34.24,24.461,33.708,24.295,33.105,24.295L33.105,24.295z M31.37,34.336
					c-0.182,0-0.21-0.068-0.225-0.105c-0.027-0.066-0.088-0.318-0.088-1.229v-4.845c0-0.871,0.06-1.12,0.085-1.188
					c0.015-0.039,0.04-0.104,0.221-0.104c0.055,0,0.185,0.006,0.203,0.061c0.016,0.044,0.066,0.268,0.066,1.23v5.012
					c0,0.805-0.049,1.033-0.07,1.094C31.553,34.285,31.535,34.336,31.37,34.336L31.37,34.336z"/>
			</g>
			<g>
				<path fill="#231F20" d="M40.618,36.781c-0.792,0-1.477-0.09-2.037-0.266c-0.566-0.182-1.014-0.457-1.33-0.822
					c-0.315-0.363-0.542-0.808-0.675-1.318c-0.131-0.504-0.197-1.266-0.197-2.264v-2.995c0-1.097,0.122-1.968,0.361-2.59
					c0.245-0.634,0.689-1.149,1.32-1.533c0.628-0.381,1.438-0.574,2.408-0.574c0.812,0,1.52,0.124,2.104,0.367
					c0.589,0.244,1.051,0.569,1.374,0.965c0.321,0.394,0.544,0.806,0.662,1.226c0.117,0.415,0.177,1.048,0.177,1.882v2.863
					c0,1.071-0.053,1.836-0.162,2.338c-0.109,0.508-0.346,0.986-0.703,1.426c-0.358,0.44-0.825,0.771-1.388,0.98
					C41.978,36.676,41.333,36.781,40.618,36.781z M40.591,26.74c-0.212,0-0.278,0.091-0.309,0.16
					c-0.043,0.095-0.094,0.359-0.094,1.081v5.274c0,0.664,0.052,0.927,0.096,1.03c0.051,0.121,0.143,0.175,0.299,0.175
					c0.211,0,0.275-0.088,0.305-0.153c0.041-0.094,0.09-0.332,0.09-0.938v-5.391c0-0.722-0.047-0.987-0.087-1.083
					C40.862,26.83,40.801,26.74,40.591,26.74z"/>
				<path fill="#58595B" d="M40.468,24.545c0.798,0,1.484,0.119,2.057,0.357c0.572,0.237,1.015,0.548,1.325,0.929
					c0.312,0.382,0.524,0.775,0.639,1.181c0.114,0.404,0.172,1.021,0.172,1.849v2.863c0,1.051-0.053,1.821-0.159,2.312
					c-0.105,0.489-0.332,0.948-0.678,1.374c-0.347,0.427-0.792,0.74-1.334,0.941c-0.544,0.203-1.167,0.306-1.872,0.306
					c-0.786,0-1.453-0.089-1.999-0.261c-0.546-0.174-0.971-0.436-1.272-0.783c-0.303-0.35-0.52-0.772-0.648-1.27
					c-0.128-0.496-0.193-1.24-0.193-2.232v-2.994c0-1.086,0.117-1.934,0.353-2.545c0.235-0.61,0.658-1.101,1.269-1.471
					S39.517,24.545,40.468,24.545 M40.583,34.586c0.211,0,0.351-0.076,0.419-0.229c0.067-0.153,0.101-0.482,0.101-0.987v-5.39
					c0-0.6-0.032-0.978-0.097-1.132c-0.065-0.155-0.202-0.233-0.414-0.233c-0.211,0-0.353,0.078-0.423,0.233
					c-0.07,0.155-0.105,0.533-0.105,1.132v5.274c0,0.554,0.035,0.912,0.105,1.079S40.377,34.586,40.583,34.586 M40.468,24.295
					c-0.993,0-1.825,0.199-2.473,0.592c-0.656,0.398-1.117,0.934-1.372,1.595c-0.249,0.646-0.369,1.507-0.369,2.635v2.994
					c0,1.023,0.066,1.773,0.201,2.296c0.138,0.53,0.374,0.991,0.702,1.37c0.331,0.382,0.797,0.671,1.386,0.857
					c0.572,0.182,1.27,0.271,2.075,0.271c0.731,0,1.39-0.107,1.959-0.32c0.583-0.218,1.068-0.561,1.44-1.02
					c0.37-0.455,0.615-0.951,0.729-1.479c0.111-0.51,0.165-1.282,0.165-2.364v-2.861c0-0.859-0.059-1.486-0.181-1.917
					c-0.123-0.437-0.354-0.864-0.686-1.271c-0.336-0.412-0.815-0.75-1.423-1.001C42.021,24.422,41.296,24.295,40.468,24.295
					L40.468,24.295z M40.583,34.336c-0.131,0-0.162-0.046-0.184-0.098c-0.032-0.076-0.086-0.307-0.086-0.982V27.98
					c0-0.764,0.058-0.975,0.083-1.029c0.014-0.03,0.04-0.086,0.195-0.086c0.15,0,0.171,0.05,0.183,0.079
					c0.023,0.056,0.078,0.27,0.078,1.037v5.39c0,0.637-0.056,0.832-0.08,0.887C40.761,34.283,40.737,34.336,40.583,34.336
					L40.583,34.336z"/>
			</g>
			<g>
				<path fill="#231F20" d="M49.257,36.568c-0.813,0-1.405-0.034-1.758-0.104c-0.367-0.07-0.696-0.238-0.977-0.497
					c-0.284-0.262-0.463-0.565-0.531-0.905c-0.066-0.321-0.1-1.076-0.1-2.238v-5.811h-0.766v-2.1h0.766v-1.841h3.817v1.841h0.96v2.1
					h-0.96v6.127c0,0.995,0.068,1.174,0.089,1.205c0.007,0.006,0.124,0.09,0.895,0.09h0.125v2.133H49.257z"/>
				<path fill="#58595B" d="M49.583,23.198v1.841h0.96v1.85h-0.96v6.253c0,0.77,0.04,1.197,0.119,1.285
					c0.079,0.088,0.41,0.133,0.99,0.133v1.885h-1.436c-0.81,0-1.389-0.034-1.734-0.103c-0.347-0.067-0.651-0.223-0.916-0.466
					c-0.265-0.244-0.43-0.523-0.493-0.838c-0.064-0.312-0.098-1.053-0.098-2.215v-5.936H45.25v-1.85h0.766v-1.841L49.583,23.198
					 M49.833,22.948h-0.25h-3.567h-0.25v0.25v1.591H45.25H45v0.25v1.85v0.25h0.25h0.516v5.686c0,1.188,0.034,1.929,0.103,2.266
					c0.074,0.363,0.265,0.69,0.569,0.972c0.298,0.273,0.647,0.451,1.038,0.526c0.367,0.071,0.95,0.106,1.782,0.106h1.436h0.25v-0.25
					v-1.885v-0.25h-0.25c-0.526,0-0.727-0.039-0.797-0.06c-0.022-0.087-0.062-0.351-0.062-1.108v-6.003h0.71h0.25v-0.25v-1.85v-0.25
					h-0.25h-0.71v-1.591v-0.25H49.833z"/>
			</g>
			<g>
				<path fill="#231F20" d="M54.753,36.568c-0.813,0-1.405-0.034-1.759-0.104c-0.367-0.07-0.696-0.238-0.977-0.497
					c-0.283-0.262-0.462-0.565-0.531-0.903c-0.067-0.325-0.099-1.059-0.099-2.24v-5.811h-0.766v-2.1h0.766v-1.841h3.817v1.841h0.96
					v2.1h-0.96v6.127c0,0.996,0.067,1.176,0.088,1.205c0.007,0.006,0.125,0.09,0.896,0.09h0.125v2.133H54.753z"/>
				<path fill="#58595B" d="M55.08,23.198v1.841h0.96v1.85h-0.96v6.253c0,0.77,0.039,1.197,0.118,1.285
					c0.079,0.088,0.41,0.133,0.991,0.133v1.885h-1.436c-0.811,0-1.389-0.034-1.735-0.103c-0.346-0.067-0.651-0.223-0.916-0.466
					c-0.264-0.244-0.429-0.523-0.493-0.838c-0.064-0.312-0.097-1.053-0.097-2.215v-5.936h-0.766v-1.85h0.766v-1.841L55.08,23.198
					 M55.33,22.948h-0.25h-3.567h-0.25v0.25v1.591h-0.516h-0.25v0.25v1.85v0.25h0.25h0.516v5.686c0,1.19,0.033,1.932,0.102,2.266
					c0.075,0.364,0.266,0.69,0.568,0.972c0.299,0.273,0.648,0.451,1.038,0.526c0.368,0.071,0.951,0.106,1.783,0.106h1.436h0.25
					v-0.25v-1.885v-0.25h-0.25c-0.526,0-0.728-0.039-0.798-0.06c-0.021-0.087-0.062-0.351-0.062-1.108v-6.003h0.71h0.25v-0.25v-1.85
					v-0.25h-0.25h-0.71v-1.591V22.948L55.33,22.948z"/>
			</g>
			<g>
				<path fill="#231F20" d="M60.9,36.781c-0.762,0-1.445-0.112-2.033-0.334c-0.59-0.223-1.06-0.535-1.395-0.932
					c-0.331-0.393-0.562-0.828-0.689-1.299c-0.126-0.462-0.19-1.142-0.19-2.019V28.79c0-1.033,0.143-1.865,0.426-2.471
					c0.287-0.613,0.763-1.089,1.414-1.414c0.644-0.322,1.391-0.486,2.221-0.486c1.017,0,1.869,0.197,2.535,0.586
					c0.67,0.391,1.146,0.917,1.416,1.564c0.268,0.637,0.401,1.541,0.401,2.687v1.676H60.4v2.402c0,0.631,0.056,0.873,0.102,0.965
					c0.035,0.069,0.105,0.16,0.329,0.16c0.29,0,0.383-0.131,0.427-0.229c0.084-0.186,0.126-0.562,0.126-1.125v-1.666h3.623v0.987
					c0,0.74-0.046,1.294-0.139,1.693c-0.095,0.401-0.316,0.835-0.661,1.289c-0.348,0.457-0.793,0.804-1.323,1.03
					S61.686,36.781,60.9,36.781z M61.189,28.779V28.05c0-0.731-0.049-1.017-0.088-1.128c-0.047-0.126-0.134-0.183-0.279-0.183
					c-0.285,0-0.327,0.109-0.342,0.145c-0.037,0.092-0.08,0.369-0.08,1.166v0.729H61.189z"/>
				<path fill="#58595B" d="M60.654,24.545c0.998,0,1.822,0.19,2.471,0.569c0.648,0.378,1.104,0.881,1.365,1.505
					c0.262,0.626,0.392,1.505,0.392,2.639v1.551h-4.606v2.527c0,0.527,0.039,0.868,0.115,1.021c0.076,0.151,0.223,0.229,0.44,0.229
					c0.271,0,0.45-0.102,0.541-0.304c0.092-0.202,0.137-0.595,0.137-1.177v-1.541h3.373v0.862c0,0.724-0.045,1.277-0.136,1.665
					c-0.092,0.389-0.305,0.803-0.639,1.242c-0.336,0.439-0.76,0.771-1.272,0.99c-0.515,0.22-1.158,0.331-1.935,0.331
					c-0.752,0-1.414-0.109-1.989-0.326c-0.576-0.218-1.022-0.517-1.344-0.896c-0.319-0.379-0.541-0.795-0.664-1.25
					c-0.124-0.455-0.186-1.117-0.186-1.985V28.79c0-1.021,0.139-1.827,0.414-2.418c0.275-0.589,0.728-1.041,1.356-1.354
					C59.116,24.703,59.838,24.545,60.654,24.545 M60.275,28.904h1.039V28.05c0-0.604-0.031-0.995-0.097-1.171
					c-0.063-0.177-0.196-0.265-0.396-0.265c-0.247,0-0.399,0.074-0.459,0.225c-0.059,0.149-0.088,0.554-0.088,1.211V28.904
					 M60.654,24.295c-0.852,0-1.617,0.168-2.278,0.499c-0.677,0.337-1.172,0.833-1.471,1.472c-0.291,0.623-0.438,1.472-0.438,2.524
					v3.409c0,0.9,0.063,1.572,0.194,2.052c0.131,0.485,0.372,0.938,0.714,1.347c0.35,0.411,0.836,0.736,1.447,0.967
					c0.603,0.228,1.302,0.343,2.079,0.343c0.803,0,1.486-0.118,2.031-0.353c0.551-0.234,1.012-0.595,1.373-1.068
					c0.355-0.469,0.586-0.918,0.684-1.336c0.096-0.408,0.143-0.973,0.143-1.723v-0.861v-0.25h-0.25h-3.373h-0.25v0.25v1.541
					c0,0.679-0.062,0.957-0.113,1.072c-0.035,0.077-0.101,0.156-0.313,0.156c-0.172,0-0.202-0.061-0.218-0.09
					c-0.026-0.055-0.088-0.248-0.088-0.91v-2.277h4.355h0.25v-0.25v-1.551c0-1.179-0.135-2.074-0.41-2.735
					c-0.281-0.673-0.775-1.22-1.471-1.624C62.564,24.498,61.691,24.295,60.654,24.295L60.654,24.295z M60.525,28.654V28.05
					c0-0.872,0.055-1.077,0.07-1.118c0.023-0.061,0.166-0.067,0.227-0.067c0.105,0,0.137,0.032,0.162,0.1
					c0.029,0.083,0.08,0.334,0.08,1.085v0.604H60.525L60.525,28.654z"/>
			</g>
			<g>
				<path fill="#231F20" d="M65.919,36.568V24.632h3.819l-0.1,1.077c0.518-0.799,1.207-1.232,2.06-1.289l0.134-0.009v4.372h-0.125
					c-0.626,0-1.088,0.083-1.373,0.248c-0.275,0.16-0.441,0.374-0.504,0.654c-0.068,0.301-0.104,1.022-0.104,2.145v4.738H65.919z"/>
				<path fill="#58595B" d="M71.708,24.545v4.113c-0.651,0-1.131,0.089-1.437,0.265c-0.306,0.177-0.492,0.421-0.562,0.735
					c-0.07,0.312-0.105,1.037-0.105,2.172v4.613h-3.559V24.757h3.559l-0.142,1.536C69.979,25.193,70.727,24.61,71.708,24.545
					 M71.958,24.278l-0.267,0.018c-0.754,0.05-1.385,0.378-1.885,0.977l0.045-0.492l0.024-0.273h-0.274h-3.558h-0.25v0.25v11.688
					v0.25h0.25h3.558h0.25v-0.25V31.83c0-1.112,0.035-1.824,0.102-2.116c0.055-0.245,0.199-0.434,0.443-0.573
					c0.267-0.154,0.707-0.231,1.312-0.231h0.25v-0.25v-4.113V24.278L71.958,24.278z"/>
			</g>
			<g>
				<path fill="#231F20" d="M81.625,47.075v-2.78c-3.936-0.281-7.701-1.895-10.613-4.546l-0.093-0.085l1.649-1.811l0.092,0.084
					c2.464,2.242,5.643,3.623,8.965,3.899v-2.149h2.449v2.155c7.51-0.583,13.484-6.63,13.979-14.145h-2.432v-2.45h2.395
					c-0.69-7.279-6.649-13.136-13.94-13.704v2.157h-2.449v-2.154c-5.754,0.469-10.663,4.082-12.834,9.454l-0.047,0.116l-2.272-0.919
					l0.047-0.116c2.555-6.313,8.336-10.516,15.106-10.99V6.314h2.449v2.773c8.673,0.58,15.692,7.498,16.397,16.161h2.537v2.45
					h-2.501c-0.501,8.901-7.536,16.01-16.435,16.602v2.774L81.625,47.075L81.625,47.075z"/>
				<path fill="#58595B" d="M83.95,6.439v2.766c8.731,0.525,15.757,7.472,16.407,16.169h2.527v2.2h-2.494
					c-0.441,8.904-7.561,16.076-16.44,16.609v2.768h-2.2V44.18c-3.957-0.258-7.705-1.837-10.654-4.521l1.48-1.626
					c2.544,2.315,5.766,3.69,9.174,3.942v-2.16h2.199v2.166c7.664-0.527,13.799-6.715,14.236-14.404h-2.439v-2.2h2.406
					c-0.644-7.483-6.685-13.445-14.203-13.963v2.166H81.75v-2.164c-5.811,0.424-10.865,4.074-13.075,9.542l-2.04-0.825
					c2.549-6.303,8.403-10.493,15.115-10.92V6.439H83.95 M84.2,6.189h-0.25h-2.2H81.5v0.25v2.538
					c-6.77,0.517-12.54,4.737-15.098,11.059l-0.094,0.232l0.231,0.094l2.04,0.825l0.23,0.094l0.094-0.232
					c2.138-5.286,6.947-8.854,12.595-9.364v1.893v0.25h0.25h2.199h0.25v-0.25v-1.896c7.124,0.62,12.936,6.333,13.679,13.443h-2.132
					h-0.25v0.25v2.2v0.25h0.25h2.173c-0.547,7.347-6.38,13.248-13.72,13.884v-1.896v-0.25h-0.25H81.75H81.5v0.25v1.89
					c-3.246-0.3-6.346-1.662-8.756-3.854l-0.186-0.17l-0.168,0.187l-1.479,1.626l-0.169,0.185l0.186,0.168
					c2.904,2.646,6.65,4.263,10.572,4.569v2.54v0.25h0.25h2.199h0.25v-0.25V44.42c8.867-0.648,15.869-7.723,16.428-16.594h2.258
					h0.25v-0.25v-2.2v-0.25h-0.25h-2.297c-0.76-8.633-7.747-15.52-16.388-16.155V6.439V6.189L84.2,6.189z"/>
			</g>
		</g>
	</g>
</g>
</svg>
